<svg enable-background="new 0 0 512 512" height="512" viewBox="0 0 512 512" width="512" xmlns="http://www.w3.org/2000/svg"><g id="&#x5F62;&#x72B6;_1_3_" enable-background="new"><g id="&#x5F62;&#x72B6;_1"><g><path clip-rule="evenodd" d="m58.442 241.547-13.048-48.208h-19.341c3.873 11.386 7.907 22.816 11.784 34.205 5.895 17.121 9.57 30.03 11.236 38.833v49.719h18.384v-49.719l22.111-73.038h-18.586zm124.967-16.928v69.916c-3.672 5.191-7.15 7.759-10.464 7.759-2.225 0-3.526-1.314-3.892-3.88-.2-.542-.2-2.56-.2-6.444v-67.351h-16.523v72.337c0 6.457.556 10.828 1.471 13.601 1.653 4.633 5.336 6.799 10.671 6.799 6.046 0 12.34-3.674 18.937-11.237v9.978h16.578v-91.477h-16.578zm-69.205-1.1c-8.257 0-14.711 3.119-19.292 9.375-3.526 4.622-5.193 11.771-5.193 21.549v32.037c0 9.722 1.667 16.934 5.193 21.511 4.582 6.238 11.036 9.365 19.292 9.365 8.306 0 14.756-3.127 19.341-9.365 3.475-4.577 5.144-11.789 5.144-21.511v-32.037c0-9.777-1.669-16.927-5.144-21.549-4.585-6.256-11.035-9.375-19.341-9.375zm7.907 66.079c0 8.465-2.563 12.696-7.907 12.696s-7.91-4.231-7.91-12.696v-38.481c0-8.463 2.566-12.684 7.91-12.684 5.345 0 7.907 4.221 7.907 12.684z" fill="#1b1b1b" fill-rule="evenodd"/></g></g></g><g id="&#x5F62;&#x72B6;_1_2_" enable-background="new"><g id="&#x5F62;&#x72B6;_1_1_"><g><path clip-rule="evenodd" d="m441.2 239.52c-5.486 0-8.222 4.178-8.222 12.55v8.384h16.4v-8.384c.001-8.373-2.748-12.55-8.178-12.55zm-60.864 0c-2.696 0-5.432 1.283-8.177 3.989v55.172c2.745 2.742 5.48 4.036 8.177 4.036 4.731 0 7.14-4.036 7.14-12.214v-38.628c0-8.178-2.409-12.355-7.14-12.355zm100.963-47.949c-3.319-14.435-15.128-25.081-29.337-26.669-31.583-3.528-63.526-3.762-95.37-3.762-2.088 0-4.178.002-6.265.002-2.088 0-4.175-.002-6.264-.002-31.843 0-63.789.233-95.37 3.762-14.21 1.588-26.012 12.234-29.332 26.669-4.724 20.558-4.779 42.993-4.779 64.158v1.519c.002 20.719.113 42.569 4.725 62.638 3.32 14.434 15.121 25.08 29.331 26.667 31.618 3.534 63.595 3.763 95.475 3.763 2.053 0 4.108 0 6.159-.002 2.054.002 4.104.002 6.158.002 31.879 0 63.86-.229 95.476-3.763 14.21-1.587 26.018-12.233 29.338-26.667 4.657-20.268 4.75-42.359 4.752-63.261v-.896c0-21.165.027-43.6-4.697-64.158zm-189.299 20.424h-19.642v104.385h-18.248v-104.385h-19.292v-17.104h57.182zm49.56 104.385h-16.406v-9.874c-6.52 7.479-12.716 11.12-18.746 11.12-5.284 0-8.927-2.146-10.568-6.729-.893-2.742-1.444-7.073-1.444-13.462v-71.583h16.396v66.65c0 3.844 0 5.838.152 6.38.399 2.541 1.647 3.835 3.839 3.835 3.292 0 6.73-2.534 10.371-7.672v-69.193h16.406zm62.31-27.173c0 8.378-.56 14.41-1.646 18.248-2.2 6.729-6.584 10.171-13.113 10.171-5.831 0-11.471-3.24-16.951-10.021v8.774h-16.4v-121.488h16.399v39.68c5.296-6.518 10.919-9.813 16.951-9.813 6.529 0 10.913 3.436 13.113 10.215 1.087 3.643 1.646 9.626 1.646 18.192v36.042zm61.901-15.103h-32.793v16.053c0 8.378 2.735 12.561 8.37 12.561 4.044 0 6.392-2.195 7.329-6.584.149-.894.36-4.529.36-11.108h16.733v2.396c0 5.276-.195 8.925-.349 10.561-.547 3.643-1.835 6.931-3.833 9.832-4.534 6.572-11.264 9.813-19.83 9.813-8.58 0-15.11-3.088-19.853-9.272-3.486-4.53-5.274-11.667-5.274-21.286v-31.702c0-9.674 1.59-16.751 5.073-21.329 4.744-6.196 11.272-9.279 19.643-9.279 8.229 0 14.76 3.083 19.354 9.279 3.435 4.578 5.069 11.655 5.069 21.329v18.736z" fill="#a62423" fill-rule="evenodd"/></g></g></g></svg>